<?xml version="1.0" standalone="no"?>
<!DOCTYPE svg PUBLIC "-//W3C//DTD SVG 20010904//EN"
 "http://www.w3.org/TR/2001/REC-SVG-20010904/DTD/svg10.dtd">
<svg version="1.0" xmlns="http://www.w3.org/2000/svg"
 width="300.000000pt" height="300.000000pt" viewBox="0 0 300.000000 300.000000"
 preserveAspectRatio="xMidYMid meet">
<metadata>
Created by potrace 1.14, written by Peter Selinger 2001-2017
</metadata>
<g transform="translate(0.000000,300.000000) scale(0.100000,-0.100000)"
fill="#000000" stroke="none">
<path d="M2180 2838 l0 -63 -120 3 -120 4 0 -26 c0 -25 2 -26 63 -26 99 0 167
-11 167 -27 0 -9 -7 -12 -24 -7 -13 3 -34 1 -46 -6 -18 -9 -21 -19 -18 -58 2
-38 7 -47 25 -52 21 -5 22 -6 6 -38 -9 -18 -24 -37 -34 -43 -11 -5 -19 -19
-19 -29 0 -15 7 -20 29 -20 47 0 74 43 117 187 l19 62 42 -6 c41 -5 43 -4 43
19 0 20 -7 27 -40 37 l-40 12 0 54 c0 66 -7 85 -31 85 -17 0 -19 -8 -19 -62z"/>
<path d="M1655 2818 c-27 -5 -87 -9 -132 -10 -66 -2 -83 -6 -83 -18 1 -37 15
-43 94 -37 l75 7 -24 -37 c-54 -78 -13 -203 67 -203 37 0 36 23 -2 58 -17 15
-33 41 -36 59 -6 29 -1 37 44 81 59 58 92 71 92 39 1 -31 23 -57 49 -57 24 0
27 22 9 63 -9 17 -21 27 -35 27 -13 0 -23 6 -23 14 0 18 -34 23 -95 14z"/>
<path d="M1820 2799 c0 -7 5 -29 12 -50 9 -32 16 -39 36 -39 23 0 24 3 18 38
-3 20 -6 43 -6 50 0 7 -13 12 -30 12 -16 0 -30 -5 -30 -11z"/>
<path d="M1087 2787 c-3 -8 -11 -51 -17 -95 -10 -67 -9 -89 4 -142 19 -72 30
-90 57 -90 24 0 24 21 3 84 -12 36 -15 66 -10 119 12 139 13 132 -10 135 -12
2 -24 -3 -27 -11z"/>
<path d="M1206 2775 c-9 -9 -16 -26 -16 -37 0 -17 4 -19 28 -13 15 5 53 8 85
7 58 -1 58 -1 55 26 -3 26 -6 27 -69 30 -51 2 -71 -1 -83 -13z"/>
<path d="M716 2728 c-3 -18 -7 -44 -8 -58 -3 -21 -9 -26 -43 -30 -53 -7 -65
-16 -65 -47 0 -27 6 -27 79 -7 l23 7 -3 -104 c-4 -95 -2 -104 15 -107 29 -6
36 16 36 111 0 56 4 87 11 87 6 0 26 -15 45 -34 37 -37 43 -70 19 -102 -24
-32 -19 -54 13 -54 33 0 49 26 59 97 6 43 5 45 -50 99 -31 29 -63 54 -72 54
-12 0 -14 10 -8 60 6 60 6 60 -20 60 -22 0 -27 -6 -31 -32z"/>
<path d="M2396 2623 c-35 -71 -75 -148 -89 -173 -15 -25 -27 -53 -27 -62 0
-25 33 -40 52 -25 17 14 95 153 152 274 33 69 37 84 26 97 -30 37 -48 20 -114
-111z"/>
<path d="M830 2696 c0 -16 7 -26 23 -30 12 -3 46 -26 74 -51 30 -27 60 -45 70
-43 24 5 29 39 7 55 -9 7 -31 24 -47 39 -65 58 -127 72 -127 30z"/>
<path d="M357 2609 c-25 -14 -21 -44 13 -108 37 -68 157 -230 183 -245 14 -9
21 -7 33 8 8 11 14 23 14 26 0 4 -30 47 -67 96 -62 82 -104 152 -117 196 -7
24 -38 38 -59 27z"/>
<path d="M1190 2587 c0 -34 79 -87 130 -87 36 0 40 3 40 25 0 21 -5 25 -29 25
-16 0 -34 7 -42 16 -16 19 -63 44 -84 44 -9 0 -15 -9 -15 -23z"/>
<path d="M1502 2335 c-33 -30 -62 -55 -66 -55 -3 0 -15 18 -26 40 -12 23 -28
40 -38 40 -18 0 -72 -46 -111 -95 -22 -28 -24 -29 -35 -11 -6 10 -21 31 -34
45 l-22 26 -30 -34 c-16 -19 -37 -56 -47 -83 -20 -55 -28 -60 -36 -19 -7 32
-31 61 -52 61 -15 0 -81 -83 -110 -139 l-17 -34 -19 24 c-10 13 -19 27 -19 32
0 4 -7 7 -15 7 -22 0 -54 -40 -66 -83 -6 -22 -15 -51 -20 -64 l-9 -25 -31 26
c-64 54 -86 24 -88 -122 l-1 -63 -29 15 c-16 9 -57 46 -91 83 -62 68 -63 68
-66 135 -7 147 -99 224 -232 194 -56 -13 -57 -34 -6 -131 l45 -86 -51 26 c-77
39 -92 14 -41 -67 33 -52 91 -90 166 -110 37 -9 65 -26 108 -68 56 -52 124
-104 150 -113 16 -5 -97 -171 -134 -198 -33 -23 -39 -59 -10 -59 27 0 118 44
148 71 l26 24 -7 -30 c-4 -16 -10 -109 -13 -207 -4 -137 -2 -192 10 -250 30
-142 30 -139 -19 -171 -87 -56 -127 -174 -86 -253 38 -74 151 -163 279 -219
106 -47 427 -115 544 -115 55 0 53 4 69 -146 6 -54 13 -107 16 -116 5 -17 28
-18 305 -18 l299 0 -34 68 c-43 85 -69 117 -152 183 -36 28 -63 53 -61 55 2 3
37 14 77 25 74 20 204 76 250 107 14 9 48 17 77 19 92 4 169 53 221 142 22 38
27 58 27 117 0 62 -3 75 -27 107 -16 19 -28 38 -28 41 0 3 20 32 44 64 99 130
150 248 161 371 4 52 15 71 43 71 7 0 27 7 44 16 23 12 36 13 52 6 69 -33 172
-18 211 31 14 18 30 37 35 44 22 26 10 42 -35 49 -25 3 -45 10 -45 15 0 4 28
32 63 60 34 29 63 56 65 60 5 13 -32 70 -68 104 -29 28 -37 30 -105 30 -71 0
-75 -1 -110 -35 -46 -44 -65 -81 -74 -139 -5 -39 -11 -48 -43 -65 -21 -11 -40
-18 -42 -15 -10 10 -8 89 3 137 13 50 12 55 -9 77 -12 13 -33 26 -47 30 -19 4
-23 10 -17 23 23 56 8 94 -41 104 -12 2 -18 10 -16 19 16 56 13 69 -15 79 -16
6 -39 8 -52 5 -22 -5 -24 -4 -17 17 4 13 10 42 12 65 6 54 -7 60 -79 39 -29
-8 -54 -14 -55 -12 -2 2 1 25 7 52 16 70 7 94 -33 94 -17 0 -55 -11 -84 -24
-56 -26 -63 -25 -63 11 0 67 -41 79 -128 38 l-52 -24 -15 35 c-8 19 -21 37
-29 40 -9 3 -45 -10 -80 -29 -68 -38 -76 -37 -90 10 -10 30 -45 73 -61 73 -8
0 -41 -25 -73 -55z m-270 -237 c9 -26 -8 -63 -27 -63 -21 0 -32 33 -21 61 7
17 42 19 48 2z m366 -34 c2 -22 -2 -33 -13 -38 -22 -8 -35 1 -35 24 0 56 43
68 48 14z m-303 -467 c-16 -94 -49 -191 -91 -267 -42 -77 -20 -99 58 -59 74
38 291 186 363 247 l70 60 3 -52 c5 -88 -28 -214 -83 -319 -20 -37 -19 -57 2
-57 33 0 232 219 302 333 37 61 38 59 62 -112 7 -49 9 -131 6 -197 -5 -106 -4
-112 15 -117 11 -3 26 -3 33 -1 15 6 49 56 85 126 13 26 26 45 28 43 14 -13
30 -172 25 -248 -6 -84 -7 -89 -35 -103 -51 -26 -25 -89 28 -65 78 35 164 -15
164 -96 0 -45 -41 -115 -88 -150 -38 -29 -51 -33 -105 -33 -53 0 -69 -5 -126
-40 -81 -48 -180 -86 -288 -110 -81 -18 -98 -15 -68 10 8 7 24 43 36 80 21 65
22 70 5 94 -16 25 -20 26 -84 21 -216 -20 -236 -45 -125 -165 l67 -73 -184 6
c-284 8 -524 64 -674 154 -122 74 -173 138 -161 200 8 43 66 109 110 123 18 6
36 17 38 25 3 7 -3 54 -13 104 -10 50 -24 149 -31 220 -12 127 -10 177 17 324
8 38 20 26 27 -26 10 -75 46 -157 67 -157 26 0 40 30 40 85 0 72 91 287 103
245 3 -8 10 -53 16 -100 37 -263 36 -260 61 -260 15 0 38 26 79 90 54 81 88
126 161 215 44 52 90 98 95 93 3 -3 -2 -44 -10 -91z m320 -1114 c-3 -16 -13
-35 -21 -43 -12 -12 -18 -10 -43 20 l-29 35 41 6 c23 3 46 7 51 7 4 1 5 -10 1
-25z m-87 -245 c17 -17 15 -65 -4 -72 -45 -17 -84 1 -84 39 0 28 19 45 50 45
14 0 31 -5 38 -12z"/>
<path d="M770 1175 c-10 -12 -12 -56 -7 -193 7 -199 11 -219 40 -228 23 -7 51
21 43 43 -3 7 -8 93 -12 191 -4 97 -11 183 -17 190 -13 16 -32 15 -47 -3z"/>
<path d="M1381 1166 c-18 -21 7 -382 26 -402 18 -17 25 -17 45 -1 15 11 15 27
3 182 -8 94 -14 178 -15 187 0 17 -25 48 -39 48 -5 0 -14 -6 -20 -14z"/>
</g>
</svg>
